# Blender v2.75 (sub 0) OBJ File: ''
# www.blender.org
mtllib Map.mtl
o map_back_geom-0310F4AF
v -0.052500 -0.274100 -0.009287
v -0.123000 -0.287900 -0.050387
v -0.052500 -0.106000 -0.028887
v -0.128000 -0.116800 -0.071087
v 0.167500 -0.273000 0.018313
v 0.052900 -0.269100 0.024613
v 0.159900 -0.101700 -0.001287
v 0.052900 -0.098000 0.004613
v 0.273200 -0.290800 -0.021287
v 0.272000 -0.111500 -0.033587
v -0.052500 0.064100 -0.054087
v -0.128000 0.057800 -0.096987
v -0.052500 0.231500 -0.084187
v -0.123000 0.228200 -0.126887
v 0.160000 0.068200 -0.026487
v 0.052900 0.069100 -0.020187
v 0.173100 0.235500 -0.058987
v 0.052900 0.235200 -0.050087
v 0.269200 0.062200 -0.066687
v 0.281600 0.232400 -0.098787
v -0.204000 -0.290100 -0.065287
v -0.203600 -0.118800 -0.084987
v -0.262500 -0.284500 -0.027787
v -0.258300 -0.113700 -0.049987
v -0.281100 -0.276100 0.028613
v -0.275600 -0.105900 0.002713
v -0.247800 -0.268100 0.082813
v -0.244500 -0.098300 0.053313
v -0.190600 -0.265200 0.102213
v -0.191200 -0.095700 0.071413
v -0.126300 -0.269400 0.074213
v -0.131100 -0.099500 0.045313
v -0.116600 -0.277900 0.016713
v -0.122100 -0.107500 -0.008387
v -0.152100 -0.282300 -0.012887
v -0.155200 -0.111600 -0.036087
v -0.203200 -0.281600 -0.008387
v -0.202900 -0.111000 -0.031787
v -0.204100 -0.271700 0.058413
v -0.164500 -0.272700 0.051513
v -0.203800 -0.101700 0.030513
v -0.166800 -0.102700 0.024113
v -0.228300 -0.276000 0.029613
v -0.226400 -0.105700 0.003613
v -0.162200 -0.276300 0.027713
v -0.164700 -0.106000 0.001913
v -0.180100 -0.278000 0.015913
v -0.181300 -0.107600 -0.009187
v -0.203600 0.055700 -0.110887
v -0.204000 0.226000 -0.141787
v -0.258300 0.060900 -0.075887
v -0.262500 0.231600 -0.104287
v -0.275600 0.068700 -0.023187
v -0.281100 0.239900 -0.047887
v -0.244500 0.076200 0.027513
v -0.247800 0.248000 0.006413
v -0.191200 0.078900 0.045513
v -0.190600 0.250800 0.025713
v -0.131100 0.075000 0.019413
v -0.126300 0.246700 -0.002187
v -0.122100 0.067000 -0.034287
v -0.116600 0.238200 -0.059687
v -0.155200 0.062900 -0.061887
v -0.152100 0.233800 -0.089287
v -0.202900 0.063600 -0.057687
v -0.203200 0.234400 -0.084787
v -0.203800 0.072800 0.004613
v -0.166800 0.071900 -0.001787
v -0.204100 0.244300 -0.018087
v -0.164500 0.243300 -0.024987
v -0.226400 0.068800 -0.022187
v -0.228300 0.240100 -0.046787
v -0.164700 0.068600 -0.023987
v -0.162200 0.239800 -0.048687
v -0.181300 0.066900 -0.035087
v -0.180100 0.238000 -0.060587
vt 0.840000 0.310000
vt 0.980000 0.310000
vt 0.890000 0.030000
vt 0.780000 0.020000
vt 0.780000 0.310000
vt 0.770000 0.020000
vt 0.730000 0.310000
vt 0.690000 0.020000
vt 0.660000 0.310000
vt 0.640000 0.170000
vt 0.750000 0.200000
vt 0.780000 0.190000
vt 0.870000 0.190000
vt 0.980000 0.020000
vt 0.840000 0.020000
vt 0.700000 0.310000
vt 0.700000 0.020000
vt 0.580000 0.310000
vt 0.580000 0.020000
vt 0.440000 0.310000
vt 0.440000 0.020000
vt 0.310000 0.310000
vt 0.310000 0.020000
vt 0.170000 0.310000
vt 0.170000 0.020000
vt 0.020000 0.310000
vt 0.020000 0.020000
vt 0.020000 0.190000
vt 0.170000 0.190000
vt 0.310000 0.190000
vt 0.440000 0.190000
vt 0.580000 0.190000
vt 0.700000 0.190000
vt 0.840000 0.190000
vt 0.980000 0.190000
vt 0.690000 0.280000
vn 0.515600 -0.099200 -0.851100
vn 0.308600 -0.110200 -0.944800
vn 0.309100 -0.110400 -0.944600
vn -0.058700 -0.115900 -0.991500
vn -0.058500 -0.116000 -0.991500
vn -0.284600 -0.121400 -0.950900
vn -0.359800 -0.066300 -0.930700
vn -0.287000 -0.183800 -0.940100
vn -0.348800 -0.137300 -0.927100
vn -0.059500 -0.146400 -0.987400
vn -0.059300 -0.146500 -0.987400
vn 0.309500 -0.139600 -0.940600
vn 0.309200 -0.139400 -0.940700
vn 0.497700 -0.127100 -0.858000
vn 0.495700 -0.090000 -0.863800
vn 0.182700 -0.112800 -0.976700
vn 0.182600 -0.112800 -0.976700
vn -0.543600 -0.094600 -0.834000
vn -0.542800 -0.095100 -0.834500
vn -0.950300 -0.017000 -0.310900
vn -0.950700 -0.016400 -0.309700
vn -0.854200 0.105100 0.509300
vn -0.854200 0.105100 0.509200
vn -0.324300 0.168000 0.930900
vn 0.402800 0.165000 0.900300
vn 0.401600 0.164600 0.900900
vn 0.985900 0.054800 0.158200
vn 0.986100 0.055000 0.157100
vn 0.644400 -0.091000 -0.759300
vn 0.645700 -0.091300 -0.758100
vn -0.088800 -0.135700 -0.986800
vn -0.090600 -0.135200 -0.986700
vn -0.837100 -0.072900 -0.542200
vn -0.835900 -0.073700 -0.543900
vn -0.769000 0.104800 0.630500
vn -0.769100 0.104800 0.630500
vn 0.173400 0.159200 0.971900
vn 0.172400 0.159000 0.972100
vn 0.995400 0.028300 0.091900
vn 0.995500 0.028200 0.090000
vn 0.554300 -0.116700 -0.824100
vn 0.559800 -0.116900 -0.820300
vn 0.559800 -0.121600 -0.819700
vn 0.995700 0.013700 0.092200
vn 0.172100 0.144500 0.974400
vn 0.172400 0.144600 0.974300
vn -0.768000 0.094000 0.633600
vn -0.769100 0.093500 0.632300
vn -0.836500 -0.080100 -0.542000
vn -0.835900 -0.080500 -0.542900
vn -0.088900 -0.146200 -0.985300
vn -0.090600 -0.145700 -0.985200
vn 0.644500 -0.111800 -0.756400
vn 0.645900 -0.112100 -0.755200
vn 0.986500 0.024000 0.161800
vn 0.402000 0.134400 0.905700
vn 0.401900 0.134400 0.905800
vn -0.323200 0.138900 0.936100
vn -0.324500 0.138300 0.935700
vn -0.854900 0.075900 0.513200
vn -0.854500 0.076200 0.513800
vn -0.951100 -0.045300 -0.305500
vn -0.543100 -0.123200 -0.830600
vn -0.543000 -0.123300 -0.830600
vn 0.182800 -0.144300 -0.972500
vn 0.182600 -0.144300 -0.972500
vn 0.498000 -0.127200 -0.857800
vn 0.497800 -0.153500 -0.853600
vn 0.308800 -0.168300 -0.936100
vn 0.309000 -0.168500 -0.936000
vn -0.072200 -0.176700 -0.981600
vn -0.059300 -0.185900 -0.980800
vn -0.344200 -0.153000 -0.926400
vn -0.348800 -0.149100 -0.925300
vn 0.516700 -0.162700 -0.840600
vn 0.182700 -0.175100 -0.967400
vn -0.542900 -0.151200 -0.826100
vn -0.543700 -0.150700 -0.825600
vn -0.950700 -0.073500 -0.301200
vn -0.950300 -0.074200 -0.302500
vn -0.854600 0.047200 0.517200
vn -0.854600 0.047100 0.517100
vn -0.323000 0.109300 0.940100
vn -0.322600 0.109400 0.940200
vn 0.401800 0.103400 0.909900
vn 0.401500 0.103300 0.910000
vn 0.986100 -0.006700 0.166300
vn 0.985900 -0.006800 0.167300
vn 0.644400 -0.132400 -0.753100
vn -0.088900 -0.156100 -0.983700
vn -0.088500 -0.156200 -0.983700
vn -0.836500 -0.087300 -0.541000
vn -0.837200 -0.086800 -0.540000
vn -0.767900 0.082700 0.635200
vn -0.767800 0.082700 0.635300
vn 0.172100 0.129600 0.976500
vn 0.173400 0.129800 0.976300
vn 0.995500 -0.000600 0.094300
vn 0.995300 -0.000600 0.096700
vn 0.560300 -0.126300 -0.818600
vn 0.560300 -0.121600 -0.819300
vn 0.558000 -0.126200 -0.820200
usemtl material-03A48E15
s off
f 1/1/1 2/2/1 3/3/1
f 1/1/2 3/3/2 8/4/2
f 6/5/3 1/1/3 8/4/3
f 6/5/4 8/4/4 7/6/4
f 5/7/5 6/5/5 7/6/5
f 5/7/6 7/6/6 10/8/6
f 9/9/7 5/7/7 10/8/7
f 10/8/8 7/6/8 19/10/8
f 7/6/9 15/11/9 19/10/9
f 7/6/10 8/4/10 15/11/10
f 8/4/11 16/12/11 15/11/11
f 8/4/12 3/3/12 16/12/12
f 3/3/13 11/13/13 16/12/13
f 3/3/14 4/14/14 11/13/14
f 2/2/15 4/14/15 3/3/15
f 2/2/16 21/1/16 4/14/16
f 21/1/17 22/15/17 4/14/17
f 21/1/18 23/16/18 22/15/18
f 23/16/19 24/17/19 22/15/19
f 23/16/20 25/18/20 24/17/20
f 25/18/21 26/19/21 24/17/21
f 25/18/22 27/20/22 26/19/22
f 27/20/23 28/21/23 26/19/23
f 27/20/24 29/22/24 28/21/24
f 29/22/24 30/23/24 28/21/24
f 29/22/25 31/24/25 30/23/25
f 31/24/26 32/25/26 30/23/26
f 31/24/27 33/26/27 32/25/27
f 33/26/28 34/27/28 32/25/28
f 33/26/29 35/26/29 34/27/29
f 35/26/30 36/27/30 34/27/30
f 35/26/31 37/26/31 36/27/31
f 37/26/32 38/27/32 36/27/32
f 37/26/33 43/26/33 38/27/33
f 43/26/34 44/27/34 38/27/34
f 43/26/35 39/26/35 44/27/35
f 39/26/36 41/27/36 44/27/36
f 39/26/37 40/26/37 41/27/37
f 40/26/38 42/27/38 41/27/38
f 40/26/39 45/26/39 42/27/39
f 45/26/40 46/27/40 42/27/40
f 45/26/41 47/26/41 46/27/41
f 47/26/42 48/27/42 46/27/42
f 46/27/43 48/27/43 73/28/43
f 46/27/44 73/28/44 68/28/44
f 42/27/44 46/27/44 68/28/44
f 42/27/45 68/28/45 67/28/45
f 41/27/46 42/27/46 67/28/46
f 41/27/47 67/28/47 71/28/47
f 44/27/48 41/27/48 71/28/48
f 44/27/49 71/28/49 65/28/49
f 38/27/50 44/27/50 65/28/50
f 38/27/51 65/28/51 63/28/51
f 36/27/52 38/27/52 63/28/52
f 36/27/53 63/28/53 61/28/53
f 34/27/54 36/27/54 61/28/54
f 34/27/55 61/28/55 59/29/55
f 32/25/55 34/27/55 59/29/55
f 32/25/56 59/29/56 57/30/56
f 30/23/57 32/25/57 57/30/57
f 30/23/58 57/30/58 55/31/58
f 28/21/59 30/23/59 55/31/59
f 28/21/60 55/31/60 53/32/60
f 26/19/61 28/21/61 53/32/61
f 26/19/62 53/32/62 51/33/62
f 24/17/62 26/19/62 51/33/62
f 24/17/63 51/33/63 49/34/63
f 22/15/64 24/17/64 49/34/64
f 22/15/65 49/34/65 12/35/65
f 4/14/66 22/15/66 12/35/66
f 4/14/67 12/35/67 11/13/67
f 11/13/68 12/35/68 13/1/68
f 11/13/69 13/1/69 18/5/69
f 16/12/70 11/13/70 18/5/70
f 16/12/71 18/5/71 17/7/71
f 15/11/72 16/12/72 17/7/72
f 15/11/73 17/7/73 20/36/73
f 19/10/74 15/11/74 20/36/74
f 12/35/75 14/2/75 13/1/75
f 12/35/76 49/34/76 14/2/76
f 49/34/76 50/5/76 14/2/76
f 49/34/77 51/33/77 50/5/77
f 51/33/78 52/16/78 50/5/78
f 51/33/79 53/32/79 52/16/79
f 53/32/80 54/18/80 52/16/80
f 53/32/81 55/31/81 54/18/81
f 55/31/82 56/20/82 54/18/82
f 55/31/83 57/30/83 56/20/83
f 57/30/84 58/22/84 56/20/84
f 57/30/85 59/29/85 58/22/85
f 59/29/86 60/24/86 58/22/86
f 59/29/87 61/28/87 60/24/87
f 61/28/88 62/26/88 60/24/88
f 61/28/89 63/28/89 62/26/89
f 63/28/89 64/26/89 62/26/89
f 63/28/90 65/28/90 64/26/90
f 65/28/91 66/26/91 64/26/91
f 65/28/92 71/28/92 66/26/92
f 71/28/93 72/26/93 66/26/93
f 71/28/94 67/28/94 72/26/94
f 67/28/95 69/26/95 72/26/95
f 67/28/96 68/28/96 69/26/96
f 68/28/97 70/26/97 69/26/97
f 68/28/98 73/28/98 70/26/98
f 73/28/99 74/26/99 70/26/99
f 73/28/100 75/28/100 74/26/100
f 48/27/101 75/28/101 73/28/101
f 75/28/102 76/26/102 74/26/102
o map_front_geom-00C8FEBE
v -0.052500 -0.274100 -0.000800
v -0.052500 -0.106000 -0.020400
v -0.123000 -0.287900 -0.041900
v -0.128000 -0.116800 -0.062600
v 0.167500 -0.273000 0.026800
v 0.159900 -0.101700 0.007200
v 0.052900 -0.269100 0.033100
v 0.052900 -0.098000 0.013100
v 0.273200 -0.290800 -0.012800
v 0.272000 -0.111500 -0.025100
v -0.052500 0.064100 -0.045600
v -0.052500 0.231500 -0.075700
v -0.128000 0.057800 -0.088500
v -0.123000 0.228200 -0.118400
v 0.160000 0.068200 -0.018000
v 0.173100 0.235500 -0.050500
v 0.052900 0.069100 -0.011700
v 0.052900 0.235200 -0.041600
v 0.269200 0.062200 -0.058200
v 0.281600 0.232400 -0.090300
v -0.204000 -0.290100 -0.056800
v -0.203600 -0.118800 -0.076500
v -0.203600 -0.118800 -0.076500
v -0.262500 -0.284500 -0.019300
v -0.258300 -0.113700 -0.041500
v -0.281100 -0.276100 0.037100
v -0.275600 -0.105900 0.011200
v -0.247800 -0.268100 0.091300
v -0.244500 -0.098300 0.061800
v -0.190600 -0.265200 0.110700
v -0.191200 -0.095700 0.079900
v -0.126300 -0.269400 0.082700
v -0.131100 -0.099500 0.053800
v -0.116600 -0.277900 0.025200
v -0.122100 -0.107500 0.000100
v -0.152100 -0.282300 -0.004400
v -0.155200 -0.111600 -0.027600
v -0.203200 -0.281600 0.000100
v -0.202900 -0.111000 -0.023300
v -0.204100 -0.271700 0.066900
v -0.203800 -0.101700 0.039000
v -0.164500 -0.272700 0.060000
v -0.166800 -0.102700 0.032600
v -0.228300 -0.276000 0.038100
v -0.226400 -0.105700 0.012100
v -0.162200 -0.276300 0.036200
v -0.164700 -0.106000 0.010400
v -0.180100 -0.278000 0.024400
v -0.181300 -0.107600 -0.000700
v -0.203600 0.055700 -0.102400
v -0.204000 0.226000 -0.133300
v -0.203600 0.055700 -0.102400
v -0.204000 0.226000 -0.133300
v -0.258300 0.060900 -0.067400
v -0.262500 0.231600 -0.095800
v -0.275600 0.068700 -0.014700
v -0.281100 0.239900 -0.039400
v -0.244500 0.076200 0.036000
v -0.247800 0.248000 0.014900
v -0.191200 0.078900 0.054000
v -0.190600 0.250800 0.034200
v -0.131100 0.075000 0.027900
v -0.126300 0.246700 0.006300
v -0.122100 0.067000 -0.025800
v -0.116600 0.238200 -0.051200
v -0.155200 0.062900 -0.053400
v -0.152100 0.233800 -0.080800
v -0.202900 0.063600 -0.049200
v -0.203200 0.234400 -0.076300
v -0.203800 0.072800 0.013100
v -0.204100 0.244300 -0.009600
v -0.166800 0.071900 0.006700
v -0.164500 0.243300 -0.016500
v -0.226400 0.068800 -0.013700
v -0.228300 0.240100 -0.038300
v -0.164700 0.068600 -0.015500
v -0.162200 0.239800 -0.040200
v -0.181300 0.066900 -0.026600
v -0.180100 0.238000 -0.052100
v -0.052500 -0.274100 -0.000800
v -0.123000 -0.287900 -0.041900
v -0.052500 -0.106000 -0.020400
v -0.128000 -0.116800 -0.062600
v 0.167500 -0.273000 0.026800
v 0.052900 -0.269100 0.033100
v 0.159900 -0.101700 0.007200
v 0.052900 -0.098000 0.013100
v 0.273200 -0.290800 -0.012800
v 0.272000 -0.111500 -0.025100
v -0.052500 0.064100 -0.045600
v -0.128000 0.057800 -0.088500
v -0.052500 0.231500 -0.075700
v -0.123000 0.228200 -0.118400
v 0.160000 0.068200 -0.018000
v 0.052900 0.069100 -0.011700
v 0.173100 0.235500 -0.050500
v 0.052900 0.235200 -0.041600
v 0.269200 0.062200 -0.058200
v 0.281600 0.232400 -0.090300
v -0.204000 -0.290100 -0.056800
v -0.203600 -0.118800 -0.076500
v -0.262500 -0.284500 -0.019300
v -0.258300 -0.113700 -0.041500
v -0.281100 -0.276100 0.037100
v -0.275600 -0.105900 0.011200
v -0.247800 -0.268100 0.091300
v -0.244500 -0.098300 0.061800
v -0.190600 -0.265200 0.110700
v -0.191200 -0.095700 0.079900
v -0.126300 -0.269400 0.082700
v -0.131100 -0.099500 0.053800
v -0.116600 -0.277900 0.025200
v -0.122100 -0.107500 0.000100
v -0.152100 -0.282300 -0.004400
v -0.155200 -0.111600 -0.027600
v -0.203200 -0.281600 0.000100
v -0.202900 -0.111000 -0.023300
v -0.204100 -0.271700 0.066900
v -0.164500 -0.272700 0.060000
v -0.203800 -0.101700 0.039000
v -0.166800 -0.102700 0.032600
v -0.228300 -0.276000 0.038100
v -0.226400 -0.105700 0.012100
v -0.162200 -0.276300 0.036200
v -0.164700 -0.106000 0.010400
v -0.180100 -0.278000 0.024400
v -0.181300 -0.107600 -0.000700
v -0.203600 0.055700 -0.102400
v -0.204000 0.226000 -0.133300
v -0.258300 0.060900 -0.067400
v -0.262500 0.231600 -0.095800
v -0.275600 0.068700 -0.014700
v -0.281100 0.239900 -0.039400
v -0.244500 0.076200 0.036000
v -0.247800 0.248000 0.014900
v -0.191200 0.078900 0.054000
v -0.190600 0.250800 0.034200
v -0.131100 0.075000 0.027900
v -0.126300 0.246700 0.006300
v -0.122100 0.067000 -0.025800
v -0.116600 0.238200 -0.051200
v -0.155200 0.062900 -0.053400
v -0.152100 0.233800 -0.080800
v -0.202900 0.063600 -0.049200
v -0.203200 0.234400 -0.076300
v -0.203800 0.072800 0.013100
v -0.166800 0.071900 0.006700
v -0.204100 0.244300 -0.009600
v -0.164500 0.243300 -0.016500
v -0.226400 0.068800 -0.013700
v -0.228300 0.240100 -0.038300
v -0.164700 0.068600 -0.015500
v -0.162200 0.239800 -0.040200
v -0.181300 0.066900 -0.026600
v -0.180100 0.238000 -0.052100
vt 0.220000 0.310000
vt 0.220000 0.530000
vt 0.090000 0.310000
vt 0.480000 0.530000
vt 0.480000 0.310000
vt 0.750000 0.530000
vt 0.750000 0.310000
vt 0.980000 0.530000
vt 0.980000 0.310000
vt 0.980000 0.750000
vt 0.750000 0.750000
vt 0.980000 0.980000
vt 0.750000 0.980000
vt 0.480000 0.750000
vt 0.220000 0.750000
vt 0.480000 0.980000
vt 0.220000 0.980000
vt 0.090000 0.750000
vt 0.090000 0.530000
vt 0.020000 0.310000
vt 0.020000 0.530000
vt 0.020000 0.750000
vt 0.090000 0.980000
vt 0.020000 0.980000
vt 0.020000 0.190000
vt 0.080000 0.310000
vt 0.080000 0.190000
vt 0.020000 0.110000
vt 0.080000 0.110000
vt 0.020000 0.020000
vt 0.080000 0.020000
vt 0.160000 0.110000
vt 0.160000 0.190000
vt 0.160000 0.310000
vt 0.160000 0.020000
vt 0.110000 0.310000
vt 0.110000 0.190000
vt 0.110000 0.110000
vt 0.110000 0.020000
vn -0.515600 0.099200 0.851100
vn -0.308600 0.110200 0.944800
vn -0.309100 0.110400 0.944600
vn 0.058700 0.115900 0.991500
vn 0.058500 0.116000 0.991500
vn 0.284600 0.121400 0.950900
vn 0.359800 0.066300 0.930700
vn 0.287000 0.183800 0.940100
vn 0.348800 0.137300 0.927100
vn 0.348800 0.149100 0.925300
vn 0.344200 0.153000 0.926400
vn 0.059300 0.185900 0.980800
vn 0.059300 0.146500 0.987400
vn 0.059500 0.146400 0.987400
vn -0.309500 0.139600 0.940600
vn -0.309200 0.139400 0.940700
vn -0.309000 0.168500 0.936000
vn 0.072200 0.176700 0.981600
vn -0.308800 0.168300 0.936100
vn -0.497800 0.153500 0.853600
vn -0.498000 0.127200 0.857800
vn -0.497700 0.127100 0.858000
vn -0.495700 0.090000 0.863800
vn -0.182700 0.112800 0.976700
vn -0.182600 0.112800 0.976700
vn -0.182600 0.144300 0.972500
vn -0.182800 0.144300 0.972500
vn -0.182700 0.175100 0.967400
vn -0.516700 0.162700 0.840600
vn 0.543600 0.094600 0.834000
vn 0.542800 0.095100 0.834500
vn 0.543000 0.123300 0.830600
vn 0.543100 0.123200 0.830600
vn 0.542900 0.151200 0.826100
vn 0.543700 0.150700 0.825600
vn 0.950700 0.073500 0.301200
vn 0.951100 0.045300 0.305500
vn 0.950700 0.016400 0.309700
vn 0.950300 0.017000 0.310900
vn 0.854200 -0.105100 -0.509300
vn 0.854200 -0.105100 -0.509200
vn 0.854500 -0.076200 -0.513800
vn 0.854900 -0.075900 -0.513200
vn 0.854600 -0.047200 -0.517200
vn 0.950300 0.074200 0.302500
vn 0.854600 -0.047100 -0.517100
vn 0.323000 -0.109300 -0.940100
vn 0.323200 -0.138900 -0.936100
vn 0.324500 -0.138300 -0.935700
vn 0.324300 -0.168000 -0.930900
vn -0.402800 -0.165000 -0.900300
vn -0.401600 -0.164600 -0.900900
vn -0.401900 -0.134400 -0.905800
vn -0.402000 -0.134400 -0.905700
vn -0.401800 -0.103400 -0.909900
vn 0.322600 -0.109400 -0.940200
vn -0.401500 -0.103300 -0.910000
vn -0.986100 0.006700 -0.166300
vn -0.986500 -0.024000 -0.161800
vn -0.986100 -0.055000 -0.157100
vn -0.985900 -0.054800 -0.158200
vn -0.644400 0.091000 0.759300
vn -0.645700 0.091300 0.758100
vn -0.645900 0.112100 0.755200
vn -0.644500 0.111800 0.756400
vn -0.644400 0.132400 0.753100
vn -0.985900 0.006800 -0.167300
vn 0.088900 0.156100 0.983700
vn 0.088900 0.146200 0.985300
vn 0.090600 0.145700 0.985200
vn 0.090600 0.135200 0.986700
vn 0.088800 0.135700 0.986800
vn 0.837100 0.072900 0.542200
vn 0.835900 0.073700 0.543900
vn 0.835900 0.080500 0.542900
vn 0.836500 0.080100 0.542000
vn 0.836500 0.087300 0.541000
vn 0.088500 0.156200 0.983700
vn 0.837200 0.086800 0.540000
vn 0.767900 -0.082700 -0.635200
vn 0.768000 -0.094000 -0.633600
vn 0.769100 -0.093500 -0.632300
vn 0.769100 -0.104800 -0.630500
vn 0.769000 -0.104800 -0.630500
vn -0.173400 -0.159200 -0.971900
vn -0.172400 -0.159000 -0.972100
vn -0.172400 -0.144600 -0.974300
vn -0.172100 -0.144500 -0.974400
vn -0.172100 -0.129600 -0.976500
vn 0.767800 -0.082700 -0.635300
vn -0.173400 -0.129800 -0.976300
vn -0.995500 0.000600 -0.094300
vn -0.995700 -0.013700 -0.092200
vn -0.995500 -0.028200 -0.090000
vn -0.995400 -0.028300 -0.091900
vn -0.554300 0.116700 0.824100
vn -0.559800 0.116900 0.820300
vn -0.559800 0.121600 0.819700
vn -0.560300 0.121600 0.819300
vn -0.560300 0.126300 0.818600
vn -0.995300 0.000600 -0.096700
vn -0.558000 0.126200 0.820200
usemtl material-03A48E15
s off
f 77/37/103 78/38/103 79/39/103
f 84/40/104 78/38/104 77/37/104
f 83/41/105 84/40/105 77/37/105
f 82/42/106 84/40/106 83/41/106
f 81/43/107 82/42/107 83/41/107
f 86/44/108 82/42/108 81/43/108
f 85/45/109 86/44/109 81/43/109
f 86/44/110 95/46/110 82/42/110
f 95/46/111 91/47/111 82/42/111
f 95/46/112 96/48/112 91/47/112
f 96/48/113 92/49/113 91/47/113
f 91/47/114 92/49/114 93/50/114
f 91/47/115 93/50/115 84/40/115
f 82/42/116 91/47/116 84/40/116
f 84/40/117 93/50/117 78/38/117
f 93/50/118 87/51/118 78/38/118
f 93/50/119 94/52/119 87/51/119
f 92/49/120 94/52/120 93/50/120
f 94/52/121 88/53/121 87/51/121
f 87/51/122 88/53/122 89/54/122
f 87/51/123 89/54/123 80/55/123
f 78/38/124 87/51/124 80/55/124
f 78/38/125 80/55/125 79/39/125
f 79/39/126 80/55/126 97/56/126
f 80/55/127 98/57/127 97/56/127
f 80/55/128 89/54/128 98/57/128
f 89/54/129 126/58/129 98/57/129
f 89/54/130 90/59/130 126/58/130
f 88/53/131 90/59/131 89/54/131
f 90/59/130 127/60/130 126/58/130
f 97/56/132 99/61/132 100/62/132
f 99/61/133 101/63/133 100/62/133
f 99/61/134 128/64/134 101/63/134
f 128/64/135 130/65/135 101/63/135
f 128/64/136 129/66/136 130/65/136
f 129/66/137 131/67/137 130/65/137
f 130/65/138 131/67/138 132/68/138
f 130/65/139 132/68/139 103/69/139
f 101/63/139 130/65/139 103/69/139
f 101/63/140 103/69/140 102/70/140
f 100/62/141 101/63/141 102/70/141
f 102/70/142 103/69/142 104/62/142
f 103/69/143 105/63/143 104/62/143
f 103/69/144 132/68/144 105/63/144
f 132/68/145 134/65/145 105/63/145
f 132/68/146 133/71/146 134/65/146
f 131/67/147 133/71/147 132/68/147
f 133/71/148 135/67/148 134/65/148
f 134/65/149 135/67/149 136/64/149
f 134/65/150 136/64/150 107/61/150
f 105/63/151 134/65/151 107/61/151
f 105/63/152 107/61/152 106/56/152
f 104/62/152 105/63/152 106/56/152
f 106/56/153 107/61/153 108/72/153
f 107/61/154 109/73/154 108/72/154
f 107/61/155 136/64/155 109/73/155
f 136/64/156 138/74/156 109/73/156
f 136/64/157 137/66/157 138/74/157
f 135/67/158 137/66/158 136/64/158
f 137/66/159 139/75/159 138/74/159
f 138/74/160 139/75/160 140/64/160
f 138/74/161 140/64/161 111/61/161
f 109/73/161 138/74/161 111/61/161
f 109/73/162 111/61/162 110/56/162
f 108/72/163 109/73/163 110/56/163
f 110/56/164 111/61/164 112/62/164
f 111/61/165 113/63/165 112/62/165
f 111/61/166 140/64/166 113/63/166
f 140/64/167 142/65/167 113/63/167
f 140/64/168 141/66/168 142/65/168
f 139/75/169 141/66/169 140/64/169
f 141/66/168 143/67/168 142/65/168
f 142/65/170 143/67/170 144/64/170
f 142/65/171 144/64/171 115/61/171
f 113/63/172 142/65/172 115/61/172
f 113/63/173 115/61/173 114/56/173
f 112/62/174 113/63/174 114/56/174
f 114/56/175 115/61/175 120/72/175
f 115/61/176 121/73/176 120/72/176
f 115/61/177 144/64/177 121/73/177
f 144/64/178 150/74/178 121/73/178
f 144/64/179 145/66/179 150/74/179
f 143/67/180 145/66/180 144/64/180
f 145/66/181 151/75/181 150/74/181
f 150/74/182 151/75/182 146/64/182
f 150/74/183 146/64/183 117/61/183
f 121/73/184 150/74/184 117/61/184
f 121/73/185 117/61/185 116/56/185
f 120/72/186 121/73/186 116/56/186
f 116/56/187 117/61/187 118/62/187
f 117/61/188 119/63/188 118/62/188
f 117/61/189 146/64/189 119/63/189
f 146/64/190 148/65/190 119/63/190
f 146/64/191 147/66/191 148/65/191
f 151/75/192 147/66/192 146/64/192
f 147/66/193 149/67/193 148/65/193
f 148/65/194 149/67/194 152/64/194
f 148/65/195 152/64/195 123/61/195
f 119/63/195 148/65/195 123/61/195
f 119/63/196 123/61/196 122/56/196
f 118/62/197 119/63/197 122/56/197
f 122/56/198 123/61/198 124/72/198
f 123/61/199 125/73/199 124/72/199
f 123/61/200 152/64/200 125/73/200
f 152/64/201 154/74/201 125/73/201
f 152/64/202 153/66/202 154/74/202
f 149/67/203 153/66/203 152/64/203
f 153/66/204 155/75/204 154/74/204
